HIERARCHY
ROOT Hips
{
  OFFSET 43.0842 91.1655 101.099
  CHANNELS 6 Xposition Yposition Zposition Zrotation Xrotation Yrotation
  JOINT LeftUpLeg
  {
    OFFSET 8.64259 1.95398 -2.38835
    CHANNELS 3 Zrotation Xrotation Yrotation
    JOINT LeftLeg
    {
      OFFSET 43.7702 0 0
      CHANNELS 3 Zrotation Xrotation Yrotation
      JOINT LeftFoot
      {
        OFFSET 40.6238 0 0
        CHANNELS 3 Zrotation Xrotation Yrotation
        JOINT LeftToeBase
        {
          OFFSET 12.7242 0 0
          CHANNELS 3 Zrotation Xrotation Yrotation
          End Site
          {
            OFFSET 0 0 0
          }
        }
      }
    }
  }
  JOINT RightUpLeg
  {
    OFFSET -8.2249 1.95398 -2.59336
    CHANNELS 3 Zrotation Xrotation Yrotation
    JOINT RightLeg
    {
      OFFSET 43.5653 0 0
      CHANNELS 3 Zrotation Xrotation Yrotation
      JOINT RightFoot
      {
        OFFSET 40.6238 0 0
        CHANNELS 3 Zrotation Xrotation Yrotation
        JOINT RightToeBase
        {
          OFFSET 12.7242 0 0
          CHANNELS 3 Zrotation Xrotation Yrotation
          End Site
          {
            OFFSET 0 0 0
          }
        }
      }
    }
  }
  JOINT Spine
  {
    OFFSET 0.165834 0.87714 6.61349
    CHANNELS 3 Zrotation Xrotation Yrotation
    JOINT Spine1
    {
      OFFSET 7.38963 1.71661e-005 0
      CHANNELS 3 Zrotation Xrotation Yrotation
      JOINT Spine2
      {
        OFFSET 11.9445 1.14441e-005 0
        CHANNELS 3 Zrotation Xrotation Yrotation
        JOINT Spine3
        {
          OFFSET 14.7254 4.19617e-005 0
          CHANNELS 3 Zrotation Xrotation Yrotation
          JOINT Spine4
          {
            OFFSET 10.9679 0 0
            CHANNELS 3 Zrotation Xrotation Yrotation
            JOINT RightShoulder
            {
              OFFSET 2.46616 -1.6653 3.69651
              CHANNELS 3 Zrotation Xrotation Yrotation
              JOINT RightArm
              {
                OFFSET 13.0012 0 0
                CHANNELS 3 Zrotation Xrotation Yrotation
                JOINT RightForeArm
                {
                  OFFSET 28.7848 1.52588e-005 0
                  CHANNELS 3 Zrotation Xrotation Yrotation
                  JOINT RightHand
                  {
                    OFFSET 26.5688 1.52588e-005 0
                    CHANNELS 3 Zrotation Xrotation Yrotation
                    End Site
                    {
                      OFFSET 0 0 0
                    }
                  }
                }
              }
            }
            JOINT LeftShoulder
            {
              OFFSET 2.38034 -1.29275 -3.7523
              CHANNELS 3 Zrotation Xrotation Yrotation
              JOINT LeftArm
              {
                OFFSET 16.3182 6.10351e-005 0
                CHANNELS 3 Zrotation Xrotation Yrotation
                JOINT LeftForeArm
                {
                  OFFSET 27.0901 0 0
                  CHANNELS 3 Zrotation Xrotation Yrotation
                  JOINT LeftHand
                  {
                    OFFSET 24.5451 1.52588e-005 0
                    CHANNELS 3 Zrotation Xrotation Yrotation
                    End Site
                    {
                      OFFSET 0 0 0
                    }
                  }
                }
              }
            }
            JOINT Neck
            {
              OFFSET 5.0226 -0.0266342 0
              CHANNELS 3 Zrotation Xrotation Yrotation
              JOINT Head
              {
                OFFSET 6.69364 2.86102e-005 0
                CHANNELS 3 Zrotation Xrotation Yrotation
                End Site
                {
                  OFFSET 0 0 0
                }
              }
            }
          }
        }
      }
    }
  }
}
MOTION
Frames:	15
Frame Time:	0.0333333
-12.0511 87.4686 57.4689 92.3082 -18.2645 89.7294 -176.86 12.4747 85.3171 -45.863 29.4742 -0.38192 66.4956 13.6137 30.6491 41.1693 12.28 7.85224 179.537 32.3185 82.2554 -40.322 -9.13822 -2.98198 60.7828 1.20209 0.287462 31.373 -0.0766757 -4.06772 0.405633 7.30789 -89.5646 12.2544 1.0126 0.755653 0.583655 1.04487 0.710349 -21.9516 0.738662 1.02503 -1.93899 0.738672 1.02503 90.7514 -54.068 -98.8172 12.8814 17.6167 -40.1938 -26.5905 0.928159 -69.7452 -12.896 -2.23309 5.25268 -102.243 -54.6756 62.5683 -0.0140608 20.4757 -57.9225 21.5535 3.53849 -106.547 14.8281 0.829478 12.568 -19.489 -14.0769 -5.44673 3.71817 -15.1489 -11.1596 
-11.7453 86.3268 57.4737 91.9341 -20.1352 89.712 -178.65 14.4142 83.8735 -50.478 30.6354 0.87855 65.9619 12.3956 33.8735 40.5097 11.2933 8.12069 -179.083 34.8274 82.6246 -44.4744 -11.5145 -3.75864 61.627 0.860163 -1.84582 32.5156 -0.729839 -4.18849 0.472929 7.2874 -89.6046 12.2957 1.12743 0.662299 0.625131 1.15547 0.61203 -21.9113 0.876258 0.970515 -1.89863 0.876264 0.970524 90.22 -53.9404 -99.6215 12.7342 16.4365 -40.7144 -27.8556 0.522319 -69.227 -13.298 -2.35471 5.64425 -101.621 -54.7814 63.4601 0.344454 21.3175 -55.7826 22.0668 1.85716 -106.336 15.6179 1.04378 12.401 -18.1614 -13.7401 -3.57817 3.24182 -14.6699 -11.5034 
-11.245 85.2009 57.5793 91.8115 -22.7917 89.6813 -179.508 15.6004 82.6462 -54.3855 30.2274 1.60622 65.9982 12.1469 35.2829 40.1762 10.3465 9.30533 -177.548 36.9936 83.172 -48.3294 -12.8201 -4.61541 62.561 0.0195856 -3.0676 33.3382 -0.916765 -5.15053 0.712006 7.26523 -89.6834 12.341 1.5653 0.454881 0.670957 1.58378 0.385528 -21.8696 1.35621 0.904354 -1.85692 1.35618 0.904348 90.6995 -52.9817 -99.1153 12.9258 14.6617 -41.0229 -28.0292 0.920329 -68.33 -16.6115 -3.41354 5.82188 -102.622 -55.6341 62.4029 0.922153 21.8224 -53.2112 21.7983 0.964972 -106.333 15.8221 1.06976 12.8568 -16.5851 -13.794 -1.96956 2.22066 -14.5358 -11.2991 
-10.627 83.9413 57.9166 91.5519 -25.661 89.7157 179.637 16.2066 82.1185 -57.9789 30.8455 2.51276 65.8229 11.4595 36.0298 40.8119 11.2144 9.32624 -175.867 39.5063 83.9669 -52.554 -13.1414 -5.39288 63.3079 -0.632918 -3.51864 34.38 -1.47728 -5.40446 0.85281 7.21085 -89.7408 12.451 1.81774 0.30903 0.781294 1.82961 0.228698 -21.7623 1.64082 0.841186 -1.74962 1.64082 0.841189 90.4137 -53.0564 -99.5231 12.4066 11.5827 -42.2533 -28.4844 1.581 -66.5163 -20.7778 -4.82709 7.15577 -104.26 -57.2143 60.7896 2.72616 23.1224 -48.5994 22.1735 -2.91511 -106.512 15.6804 1.11484 11.4718 -15.3145 -13.2068 0.357393 1.57913 -13.8678 -11.4382 
-9.93026 82.717 58.5911 91.6026 -28.5688 89.8649 179.486 16.1628 82.2849 -61.5769 33.8219 3.13899 65.6009 11.0385 37.3766 41.3386 12.0947 8.92011 -174.063 41.7779 85.2059 -56.9913 -13.0358 -6.23931 64.0763 -1.07576 -4.47119 34.8803 -1.7429 -5.54125 0.988112 7.1531 -89.7042 12.5662 2.10393 0.346243 0.896955 2.11714 0.253264 -21.6495 1.90258 0.962768 -1.63684 1.90256 0.962755 90.2745 -53.7992 -99.5713 13.8694 11.3591 -43.8526 -28.1637 -0.0150151 -69.7277 -27.0911 -7.26808 9.87396 -103.464 -57.149 61.8256 2.26895 24.4562 -44.0171 22.9801 -6.86437 -107.295 15.5176 1.05863 11.7326 -13.8528 -12.49 0.85473 0.960683 -13.0462 -10.662 
-9.38596 81.8195 59.7259 91.3997 -31.2954 90.3028 -178.906 15.9997 83.3133 -62.9386 33.4466 2.58933 65.6135 11.4636 38.1739 41.6176 12.4962 8.85635 -172.346 45.1002 87.1074 -61.9891 -12.2671 -6.6956 62.2624 0.768514 -4.32374 36.5849 -2.73329 -5.72971 1.15607 7.09055 -89.6599 12.691 2.45866 0.389728 1.02238 2.47343 0.281068 -21.5283 2.2278 1.11097 -1.51567 2.22782 1.11098 90.918 -53.1311 -98.7614 22.6059 18.1828 -47.3237 -28.6983 -7.5877 -82.8133 -33.0454 -9.9595 12.7464 -101.29 -56.0416 64.3582 2.62833 23.9296 -41.9402 24.0669 -10.5713 -108.945 15.386 1.02127 11.8028 -10.441 -11.872 0.745075 -0.991009 -12.1978 -9.78461 
-9.06022 81.1179 61.0906 91.4923 -32.7068 91.2333 -177.197 15.5958 85.3025 -64.3589 34.8226 2.28421 65.8801 12.1445 39.0909 41.5432 12.0277 9.80699 -174.383 49.3604 89.9602 -66.9764 -12.3684 -5.24335 60.0232 3.62264 -6.78214 35.9332 -0.787217 -10.8596 1.2532 7.06628 -89.6117 12.7388 2.67459 0.458967 1.0706 2.6922 0.340713 -21.4827 2.41294 1.242 -1.47006 2.41296 1.242 92.1486 -49.9963 -97.5243 32.1055 25.6922 -52.9638 -29.9615 -12.2162 -101.02 -36.8639 -12.1304 15.6698 -97.121 -52.9212 69.1214 3.88062 17.0691 -45.6716 21.5484 -8.85619 -111.51 18.6254 1.81964 12.2696 -7.86423 -11.7267 -0.273667 -1.64805 -11.9019 -9.67292 
-8.82697 81.1014 62.834 92.5988 -32.7115 92.6698 -175.484 13.7057 88.0166 -63.6096 34.3564 2.07026 66.1228 13.004 38.6839 42.2809 13.2917 9.11701 178.919 53.2992 93.7917 -69.6095 -15.6319 -2.32023 61.6936 4.34709 -15.7081 35.2302 0.232443 -12.5262 1.18371 7.09843 -89.5193 12.6719 2.58079 0.656955 1.00337 2.60717 0.542659 -21.5472 2.26399 1.40254 -1.53451 2.26398 1.40253 93.5661 -42.9997 -96.6021 40.3714 28.1895 -65.1065 -37.3455 -9.3904 -112.15 -37.1427 -13.2351 19.8868 -93.2055 -48.1108 73.4446 3.1794 1.35048 -55.8963 17.6101 0.64431 -111.978 23.1896 2.99668 13.617 -6.51922 -11.3501 -1.14006 -2.42938 -11.3674 -9.54942 
-8.20824 82.4802 65.1304 94.7387 -33.153 94.5757 -173.375 9.12564 91.3919 -58.9907 34.637 1.50217 65.7845 12.6769 36.9155 42.9007 14.1658 8.98959 175.834 56.7734 96.3478 -70.4567 -13.6902 -1.18798 63.1541 2.64825 -15.8624 36.1687 -0.353749 -12.7701 1.23034 7.0994 -89.329 12.6646 2.76421 1.01591 0.996299 2.80622 0.893178 -21.5536 2.33109 1.79999 -1.54095 2.33106 1.79997 95.5293 -34.1513 -94.8012 50.2442 29.3284 -81.8635 -39.0844 -11.5728 -112.611 -40.8842 -15.6201 22.079 -89.075 -40.7381 78.074 -4.76774 -12.0785 -72.7454 11.5965 14.2613 -105.225 29.9294 4.7026 12.3052 -6.78077 -10.9761 -3.97558 -3.38695 -10.6909 -8.563 
-6.38031 84.7254 68.3442 97.7304 -32.314 99.262 -172.418 2.18387 96.533 -52.8358 32.8434 2.84261 65.5856 11.5778 33.1067 43.4288 15.0183 8.52856 171.261 59.2103 100.452 -72.3755 -15.5047 0.0241369 63.6269 2.45933 -18.1515 40.0447 -3.11208 -12.6025 1.10634 7.04517 -89.4856 12.7775 2.44328 0.737277 1.1087 2.47333 0.628964 -21.4394 2.1087 1.43774 -1.4267 2.10869 1.43774 97.3123 -21.492 -93.6011 58.7921 27.9964 -92.4098 -41.9348 -17.1537 -101.806 -42.6239 -16.0277 20.5241 -86.6188 -34.2906 80.8331 -9.57782 -16.4757 -85.8233 8.0375 19.2199 -93.3172 36.2754 6.27804 11.9009 -11.7459 -9.49862 -4.67344 0.280062 -9.67703 -8.46905 
-3.96509 88.2257 71.9811 100.089 -28.1942 103.423 -172.592 -5.06252 101.353 -46.0098 32.0996 6.06099 64.4155 8.7117 26.147 42.1667 12.817 9.98124 165.126 61.7452 103.201 -77.4845 -15.3425 0.26926 65.3022 -0.0188317 -17.4694 41.9401 -4.17051 -13.6385 0.709698 7.09488 -89.6726 12.6816 1.56607 0.469788 1.01155 1.58522 0.400387 -21.5289 1.35247 0.918807 -1.51626 1.35244 0.918793 98.7912 -12.9632 -91.6629 40.5509 24.979 -86.4535 -40.7437 -9.93369 -73.143 -42.6659 -14.8119 16.2973 -85.4006 -28.6983 81.8632 -6.78171 -14.2303 -93.6397 6.6118 13.1284 -79.0349 36.1155 5.81214 8.62019 -18.5303 -7.6687 -8.10112 2.91829 -8.3249 -6.30962 
-1.92114 91.9144 75.9682 101.319 -24.7217 106.557 -170.29 -5.63028 107.928 -44.8249 31.8441 7.13493 60.4075 0.618964 17.3344 41.8316 12.0603 10.7425 157.418 66.647 109.389 -84.2402 -6.33023 -0.497181 67.1105 -2.75735 -14.9756 44.2839 -6.43509 -10.4824 0.310757 7.16859 -89.873 12.5363 0.677916 0.175098 0.865518 0.685008 0.14508 -21.6707 0.593905 0.370745 -1.65804 0.593972 0.370752 99.3099 -10.3994 -90.716 18.7108 19.0569 -77.8477 -40.6732 -2.0357 -51.3917 -41.2843 -13.1644 12.4568 -85.5672 -27.0122 81.1252 5.37609 -8.0478 -96.672 11.6058 -1.89183 -65.3706 34.4691 5.12677 5.81025 -25.8568 -6.27968 -11.5773 6.28648 -7.8723 -4.73108 
-0.375706 94.5371 79.4638 102.429 -21.7195 108.316 -169.481 0.0695876 111.093 -53.7189 34.5241 7.01924 57.1961 -6.38593 17.5305 32.3581 -4.25452 13.9073 143.928 74.1913 120.555 -94.6825 -4.9988 -2.439 68.0332 -4.25418 -13.894 46.9982 -8.24196 -10.1285 -0.00337748 7.3147 -89.8721 12.2444 0.0539471 0.249298 0.57341 0.0648456 0.246685 -21.9615 -0.0234674 0.253991 -1.94889 -0.0234694 0.253986 99.5627 -15.1836 -89.1405 7.09227 13.1994 -74.8566 -38.1319 0.718164 -44.8805 -39.9481 -12.3614 11.3911 -86.666 -29.3568 79.541 13.7873 -2.20284 -98.7669 14.6889 -7.2606 -58.7785 35.1164 5.25544 5.81782 -31.1016 -4.71908 -15.1623 10.01 -7.36134 -3.25996 
1.3176 95.9936 82.5171 104.101 -17.9108 110.653 -167.91 6.04152 112.488 -57.6713 32.1372 5.39018 59.4625 -2.34617 18.8762 31.9516 -1.49881 9.15023 111.487 79.4761 148.332 -103.683 -6.31792 -4.0149 69.2661 -5.42255 -15.9277 47.5126 -8.55914 -10.1894 -0.159835 7.74707 -90.0657 11.3796 -0.34864 -0.0957852 -0.291253 -0.352544 -0.0803484 -22.8267 -0.303737 -0.196136 -2.81405 -0.303752 -0.196148 98.6342 -19.1379 -90.875 0.826076 10.894 -69.0576 -37.2394 1.37547 -43.285 -38.3908 -11.8192 11.6451 -89.72 -36.2943 75.7982 18.981 2.36522 -99.016 13.408 -7.80028 -57.9587 32.4762 4.61193 4.51245 -32.8527 -4.80373 -14.3903 11.2905 -7.89121 -5.18355 
3.2269 96.8345 85.0548 107.925 -14.2114 113.062 -164.774 5.30357 111.803 -48.5516 28.5163 2.44712 62.2176 4.07889 14.3442 35.9157 3.8368 10.1291 73.9442 80.7966 -178.271 -109.381 -8.57242 -5.32539 70.5713 -5.95354 -19.9347 45.0316 -7.03647 -9.85757 -0.201756 8.46897 -90.3275 9.93417 -0.550764 -0.605017 -1.73681 -0.576872 -0.580189 -24.2713 -0.343497 -0.742567 -4.25861 -0.343475 -0.742571 97.2438 -23.9754 -93.2439 -3.60516 9.17106 -63.8573 -36.3647 0.91128 -42.892 -37.6559 -11.3576 10.8746 -92.4809 -40.2043 72.2639 15.9813 9.17586 -96.0223 14.3456 -4.14639 -60.8522 31.713 4.74759 7.67295 -32.4716 -5.31526 -13.5108 11.9897 -8.39285 -6.18329 
